<svg id="Layer_1" data-name="Layer 1" xmlns="http://www.w3.org/2000/svg" viewBox="0 0 1700 1700"><defs><style>.cls-1{fill:#bdbec1;}.cls-2{fill:#231f20;}.cls-3{fill:#fff;}.cls-4,.cls-5{fill:#414042;}.cls-4{stroke:#fff;stroke-miterlimit:10;stroke-width:3.8px;}</style></defs><title>BCP Full Lockup</title><path class="cls-1" d="M423.49,951.06l53.18-287.24,52.9,290.47c-10.61,3.12-43.39,6.45-63.21,5.52A142,142,0,0,1,423.49,951.06Z"/><path class="cls-1" d="M1131.21,344.26c.09.08,180,158.27,181,136.1S1290.81,638.48,1439,798c84.64,91.17,118,129.44,124,183.77,1.83,16.41,18.48,94.5-25,149.33-10.3,13-39.17,43.89-157.87,56.75-119.07,12.89-210.27-5.18-211.85-5.49-498.95-98.87-557.31-104-630.33-184.56C485.77,940.32,457.86,598.33,491,521c32-74.61,93.69-110.74,159.17-148.33,68.16-39.13,144.63-60.83,221.93-68.31C947.74,297.06,1071.29,291.56,1131.21,344.26Z"/><path class="cls-2" d="M655.18,926.1c3.34,12.43,11.6,33.93,25.5,48.83a6.17,6.17,0,0,0,7.33,1.34c3.87-2.12,2.21-6.44,4.37-25.24a6.25,6.25,0,0,1,9.43-4.68c11.75,7.29,19,5.14,34.11,22a6.18,6.18,0,0,0,10.67-3.23c.58-3.31,2-7.75,4.85-14.1a6.25,6.25,0,0,1,11.61.53c1.2,3.56,3,8.47,5.55,15.4a6.29,6.29,0,0,0,9.16,3.13c13.84-8.38,2.55-11.54,2-53.78-.08-6.52,8.67-8.83,11.75-3.07,2.11,4,4.91,9.9,9.08,19.2a6.23,6.23,0,0,0,8.26,3.17c10-4.64,33.83-9.17,47.73-36.11a6.28,6.28,0,0,1,8.38-2.75c60.83,30.86,36.87,92.81,132.27,90.66a6.25,6.25,0,0,1,5.69,9.14c-25.55,50.33,661,148.36,168.91,198.91a6.37,6.37,0,0,0-3.66,1.64c-46.08,43.17,41.55,88.37,48.26,149.88a6.19,6.19,0,0,1-5,6.65c-32,6.7,19.09,224.15-34.15,157.29-5-6.33-14.71.7-10.11,7.36,17.21,24.9,51.55,59.46,36.93,107.41a6.34,6.34,0,0,1-6,4.52c-18.23,0-140.6,53-238.16,0-128-69.54-89.63-242.39-166.3-259.69-130.17-29.36-340,283.83-374.52,259.49-25.63-18,79.79-207.64,66.1-215.5C470,1405.78,333.4,1638,302.78,1623.18c-10.63-5.14-.52-37.47,12.69-120.28,13-81.25,32.39-161.31,53.67-240.73,25.08-93.56,40.76-215.24,54.35-311.11a510.36,510.36,0,0,0,231.69-25Z"/><path class="cls-3" d="M1546.23,1081.58s-226.59,23.86-241-55.82c-14.71-81.23,52.21-135.23,101.54-189.64,17.42-19.17,37.39-14,56.67.45,12.9,9.65,23.64,21.08,34.64,32.71,17.53,18.54,35.09,35.13,48.31,57.35,19.64,33,28.82,76.41,29.56,115.59.49,25.55-7.61,44.46-29.69,39.36"/><path class="cls-2" d="M1211.11,127.11a272,272,0,0,0-76.87-11.24c-38.29,0-133.91-.29-134.86,56.69-1.85,111.73,222.89,388.8,312.73,345.75,21.22-10.18,12.35-29.5,65.16-126.67,38.77-71.32,57.45-86.48,52.11-116.18-5.47-30.43-32.89-52.94-93.32-89.15C1295.43,162,1254.86,139.83,1211.11,127.11Z"/><path class="cls-4" d="M839.26,166.85c0,.07,0,.11,0,.19l-.88.76.65-1Z"/><path class="cls-4" d="M1154.23,472.39v.15q-1.87-7.69-3.69-15.48a35.64,35.64,0,0,1,2.89,7.42A23.82,23.82,0,0,1,1154.23,472.39Z"/><path class="cls-5" d="M839.26,166.85c0,.07,0,.11,0,.19l-.88.76.65-1Z"/><path class="cls-2" d="M430.76,934.14c145.13,23,301-31.11,399.34-140.66C842,780.25,853.6,764.92,854,747.16c2.13-82.33-156,11.07-187.68,26.05-50.93,24.12-107.21,11.79-161.56-13.8-99.56-46.86-143.22-183-73.51-273.14,49-63.44,145.54-84.2,216.32-46.55,11.6,6.16,22.63,13.84,31.18,23.73-.57,4-.38,8.25.8,11.26,4.68,12.17,13.28,22.78,19.21,34.53,10.91,21.83,19.13,44.38,10.53,69.22-1.82,5.36-4.48,10.42-6.77,15.63-6.39-4.57-17.6-8.52-18.18-13.73-1.67-14.68-11.56-30.46,2.36-45.22,2.82-2.93,2.21-13.54-.83-16.66-6.81-6.88-16.13-11.29-24.61-16.39-.3-.15-4.37,3.77-4,5.1,3.69,14-1.79,15.4-14.57,13.76-11.29-1.4-14.91,8.26-13,18.26,1.67,8.63,5.05,17,7.41,25.48,1,3.57,2.89,9.66,1.52,10.65-23.46,16.81-1.06,29.59,3.84,43.47,2.7,7.6,8.6,14.07,11.6,21.64,1.07,2.74-1.1,8.9-3.61,10.42-4.33,2.62-30.69-21.72-31-27.27-.23-4.49-1.79-8.94-2.78-13.39-2.36,3.58-4.3,7.53-7.15,10.69a183.93,183.93,0,0,1-16.77,16.85c-7.91,6.8-16.28,13.12-24.68,19.32-3.27,2.39-7.72,6-10.73,5.25s-6.39-5.75-7.34-9.44c-5.06-20.23,4.11-32.25,24.57-36.62,5-1.06,10.38-8.25,12.29-13.81,2.16-6.23,1.52-13.88.41-20.65-1-6.27-4.26-12.2-6.54-18.29-3,4.49-5.09,10.12-9.16,13-3.65,2.66-9.66,3.65-14.3,3-6.43-.91-12.55-4-18.83-6.2-3.8,3.77-7.64,7.49-11.45,11.22q-19.85,47.46-39.7,94.89c-.3,8.33-.65,16.62-.95,24.95.49,7.18,1,14.33,1.48,21.52,1.94,3.08,3.84,6.2,5.78,9.28,2,.76,4,1.52,6,2.24,2.78-.38,5.93-1.86,8.25-1.06,17.54,6.2,35,12.47,52.22,19.55,5.9,2.39,10.8,7.07,16.16,10.69l6.93,1.59c4-.45,8-.87,12-1.33,2.54,0,5.09,0,7.64.08q11.46.35,22.93.76l22.52-.46a11.64,11.64,0,0,1,3.53-.95c3.39-3.42,7.15-6.54,10-10.31a220.46,220.46,0,0,0,13.66-19.43c6.65-10.84,12.28-22.4,19.7-32.67,1.25-1.75,9.24,1.29,14.11,2.09,6.35.19,12.7.35,19,.54,8.64-2.63,17.12-5.86,25.9-7.76,12.21-2.66,24.76-6.54,36.93-5.86,14.72.8,29.17,5.82,43.7,9.05,0,0,.19.15.19.15,10.72-2.43,21.87-3.72,32-7.64,12.29-4.79,14.8,0,14,10.69,4.9,5.24,9.85,10.49,14.79,15.74,2.43,1.71,4.83,3.39,7.26,5.06,2.63.61,5.25,1.18,7.88,1.75,3.72.8,7.41,1.63,11.1,2.47L945.07,735q11.17-3.81,22.28-7.64c4.11-1.86,8.26-3.73,12.36-5.55,2.32-1.64,4.61-3.31,6.89-4.95,11.67-18.4,27.46-9.51,42.37-6.39,1.17-1.78,2.31-3.57,3.49-5.36q-5.76-7.36-11.52-14.79c-6.58-4.61-13.16-9.17-19.7-13.77-1.94-4.07-3.92-8.18-5.86-12.25-11-13.69-24.83-21.14-42.78-19.62,5.74,4.83,11.94,9.2,17,14.6,3.08,3.27,4.41,8.14,6.54,12.29-3.23.83-6.47,1.71-9.7,2.55-2.17.49-4.37.95-6.54,1.44l-5.44,6c-1.64-2.17-3.23-4.34-4.83-6.5l-7-1.94C923.16,682.36,927,663.8,922,655.7c-8.63,2.51-17.3,5.06-25.94,7.57-14.3.15-28.6.79-42.9.34-19.7-.57-36.28-31.49-26.31-51.38a100.81,100.81,0,0,0,11.29-48.42c0-8.17,17.5-19.77,29.13-23.95,17.76-6.36,36.74-9.63,55.61-12.63,2.35-.38,4.67-.72,7-1.1,4.19-.69,8.79,1.4,13.46,3.42,1.79.76,3.62,1.52,5.41,2.09q9.63,5.37,19.28,10.69c6.23,5.13,12.47,10.27,18.75,15.48,12.7,4.86,25.86,9.31,27,26.12l6.8.92q13.82,18.42,27.61,36.77,5.15,8,10.24,16c5.24,13.24,9.27,26.36-2.67,38.38l-1.14,11c3.77,4.22,7.49,8.44,11.22,12.63,2.74-4,7.42-7.69,8-12,5.06-40.46,36.66-62.14,62.14-87.92,2.82-2.82,12.74-2.44,16.55.34,8,5.82,11.41,7.15,13.31-4.3,1-5.93,5.78-11.26,6.54-17.15,1.44-11.37,3.53-23.39,1.37-34.42-4.52-23-9.16-46.16-14.82-68.91-2.81-11.3-6.81-22.56-13.58-32.14-7.52-10.66-16.18-20.81-24.56-30.85-12.65-15.17-25.46-30.21-37.06-46.21C1033,296.14,980.89,219.94,920.65,166.16,826.18,81.73,693.83,36.17,560.53,41.5,424.61,47,293.52,144.79,213.16,249.11c-78.61,102-107,240.13-78,365.25,33.92,146,114.89,279.72,269,314.67q13.21,3,26.57,5.11m411.7-768-.87.76.64-.95h.27C842.5,166,842.46,166,842.46,166.09Z"/><path class="cls-3" d="M1038.44,397.74c7.2,23,15.87,45.76,20.89,69.26,2.06,9.65-2.85,20.52-17.32,22.83-10.93,1.75-20.49,16.33-32.67,2.17-.53-.62-4,.13-5,1.23-21.05,22.59-42.63,3.21-62.91-.65-27-5.13-52.57-18.49-79.62-22.54-18.64-2.79-31.24-6.08-43-22.85-11.55-16.52-29-30.2-53.91-17.46-7.92,4-19.67,1.54-29.44.3-2.2-.28-5.82-8.63-4.72-11.9a129.86,129.86,0,0,1,13.4-28.46c7.56-11.82,4.28-19.94-9.77-22.5-7.54-1.37-19.09-2.35-21.29-7-4.85-10.33-5-22.9-6.8-34.59-.12-.78,1.29-2.45,2.22-2.64,16.46-3.5,12.35-14.09,6.46-26.31,7.63.69,13,1.82,18.32,1.52,12.21-.69,18.35-11.42,10.46-20.48-7.35-8.46-2.86-9.86,3.58-13.24,25.88-13.57,50.19-29.82,82.16-28,8.18.46,17.28-13,25.6-20.42,1-.91.64-5.31-.56-6.28-1.58-1.29-4.89-1.61-7-.92-20.39,6.67-39.75,7.17-59.65-3.52-14.66-7.86-52,5.41-62.14,19.69-2.19,3.09-3.85,7.73-6.81,8.84-4.69,1.75-10.26,1.12-15.46,1.5.13-5-1.56-11.08.67-14.83,16.64-28,42.34-43.65,73.38-51.42,6.38,1.12,12.91,3.65,19.06,2.94,5.81-.67,11.23-4.75,16.82-7.33l4.18,5.61-24.77,19.93c20.66,5.91,39.23,17.77,60,3.69,3-2.06,12.62.26,14.73,3.47,2.27,3.46.95,11.37-1.64,15.58-11.85,19.27-25,37-52.18,32.91-10.88-1.66-21-.18-19.42,15.19-1.72,6.94-20.17,10.92-3.18,21.27,12.15,7.4,12.25,20.43,1.19,30-6.12,5.28-13.21,9.71-18.29,15.83-2.58,3.1-1.66,9.1-2.31,13.79,4.82-1.27,12.17-1,14-4.06,10.71-17.55,27.26-23.63,46-25.46,21.8-2.12,43.69-3.35,65.55-5l.06,13.38c-13,.41-26.31-.89-38.78,1.82-8.24,1.78-15.23,9.32-22.78,14.28l-11.13,12.39c-2.77,3.4-6,6.53-8.11,10.3-1.23,2.25-.63,5.51-.85,8.32,2.26-.3,4.55-.45,6.78-.92,23.52-5,46.86-11.38,70.62-14.71,23-3.23,45.89-5.2,64.34-21.43l23.78-16.08,10.38-.22c16.07,8.57,32.89,16,48,26,16.19,10.75,12.43,30.21,16.14,46.29-8.87-10.45-17.16-21.46-26.77-31.16-7.39-7.45-16.42-15.72-25-.48-2.65-3.7-5.37-7.35-7.92-11.12-3.1-4.6-6.06-9.29-9.08-13.94l-10.94,13.1-12.24,12.21c-2.12,4.12-5.31,8-6.16,12.42-4.62,23.68-17.8,31-41.89,22.52,7.2-1.52,14.58-2.5,21.51-4.81,2.94-1,4.95-4.74,7.38-7.24-2.43-2.26-4.54-5.92-7.33-6.55-19.27-4.39-38.66-8.22-58.07-12-2-.4-5.51.19-6.32,1.53-.93,1.53-.3,4.86.85,6.62,2.36,3.58,5.52,6.62,8.35,9.89-11.58,1.94-23.51,2.81-34.57,6.36-4.3,1.39-6.65,8.83-9.89,13.51,5.18.56,10.36,1.45,15.55,1.59,14.13.37,28.32-.27,42.38.81,11.73.9,23.43,5.69,34.94,5.07,13.44-.72,26.78-5,39.95-8.56,11.73-3.15,18.31-3.26,15.09,12.63-2.14,10.58-5.51,16.77-16.54,19.66-12.77,3.34-25,8.91-37.42,13.51l-16.25-7.73c-1.84-4.24-3.16-11.82-5.6-12.2a443.94,443.94,0,0,0-53.2-5.32c-4.58-.15-9.36,5.45-14,8.41,5.45,1.91,10.77,4.6,16.39,5.55,10,1.68,20.21,2.3,30.32,3.37,9,5.86,17.7,16,27.13,16.72,20.6,1.63,41.81-.06,62.3-3.31,9.06-1.44,6.58-7.39-2.16-8.42,8.06-3.31,16.27-9.65,24.15-9.26,13.23.66,19.21-6.08,16.8-15.92-4.64-19,2.08-20.9,17.39-15.6C1035.84,399.05,1037.24,398.1,1038.44,397.74Zm-20.38,49.43c-4.57,6.83-9.59,11.8-8.68,13.42a33.67,33.67,0,0,0,12.56,12.86c1.89,1,7.17-4.22,10.9-6.61C1028.72,461.37,1024.61,455.89,1018.06,447.17Z"/><path class="cls-3" d="M535,778.42l6.9,1.58-.06,3.8c2.49,13.56,4.5,27.24,7.6,40.66,3.51,15.19,7.56,30.31,12.33,45.15,1.55,4.81,6.1,8.66,9.28,12.95,1.51-5.57,5.32-11.7,4.14-16.64-6.35-26.57-14-52.85-21.11-79.23l18.34,4.56C577.57,809,580.13,828,588.55,844c8.94,17,14.08,25.85,11.3,45.25l-11.43,4-22.9,7.08-.34.26c-26-10.09-50.71,1.55-75.93,4.59L462.67,905c-5.85-3.35-11.4-7.52-17.63-9.86-14.67-5.51-29.92-14.82-44.47-14-21.5,1.16-40.65-1.55-59.31-11.27l-15.62.2c-1.09-7.36.24-16.62-3.75-21.69-9.16-11.64-21.28-20.9-31.31-31.95-2-2.21-1.33-8.67.34-12.06,5.73-11.6-1.46-13-9.91-14-.29-3.71-.58-7.41-.86-11.12l6.77-.62c5.46,11.26,13.81,7.15,16.78.26,4.53-10.53,22.85-19.26,7.26-34.21q2.13-10.1,4.28-20.2c-5.23,3.93-10.5,7.82-15.67,11.83-.95.75-1.36,2.76-2.25,2.93-4.92,1-9.91,1.5-14.88,2.18,1.67-4.29,2.33-9.51,5.23-12.67,5.92-6.48,13.81-11.23,19.31-18,2.26-2.76.44-8.85.47-13.43-3.95,1.1-9.11,1-11.65,3.51-16,15.93-31.37,32.55-47.17,48.72-10.12,10.37-20,22-37.16,13.68a15.94,15.94,0,0,1,.72-3.2c2.76-1.41,6.06-2.26,8.21-4.31,23-22,46-44.13,68.61-66.66,3.63-3.63,5-9.51,7.43-14.35-4.83,1.68-10.87,2.06-14.3,5.24-25.16,23.4-49.8,47.36-74.6,71.14-9.49-1.21-12.34-4-4.69-12.53s13.77-18.54,20.56-27.89l60.57-47-3.63-5.36-24.78,6.3c5.75-6.18,8.32-8,9.61-10.54,2-4,3.2-8.42,4.74-12.66-3.74,1.47-7.56,2.74-11.18,4.44-13.1,6.16-26.12,12.46-39.17,18.7-1-1.88-2.07-3.77-3.1-5.65,5.12-3.27,10.62-6.07,15.26-9.93,6-5,17-12.93,15.88-15.85-9-24,9.92-23.79,22.93-29.14,6.65-2.73,13.08-6,19.61-9l-2.57-5.1c-36.31,5.8-68.91,20.91-99.38,41.35l-19.06,8.15-18.51-4.31c-7.8-18.5,12.43-8.63,15.89-15.72l77-36.18-28.68-4.28a882.46,882.46,0,0,1,91.42-33.22c5.44-1.65,12.86,3.27,19.37,5.16-2.12,6.39-3,13.74-6.77,18.86-3,4-9.88,5-14.71,8-2.4,1.46-4.05,4.15-6,6.29,2.47,1.29,5.71,4.3,7.3,3.59,14.42-6.43,15.84,6.47,22.13,13.39,6.88,7.56,12.77,12.86,11.38,25.54-1.24,11.37-14.19,32,13.47,33.58.6,0,.65,3.42,1.6,4.8,4.38,6.37,9,12.57,13.52,18.84l-42.19,47.24,3.15,4.67c10.49-3.23,26.05-24.53,27.14,5.76,4.07-.33,8.45.19,12.16-1.15C379.45,736,385.87,736,384,752c-1,8.85,2.34,18.54,5.17,27.39s8.92,12.45,16.89,4.61c3.94-3.88,6.83-8.89,11-12.47,2.22-1.92,8.25-3.45,8.92-2.52,5.11,7,5,18.9,19.26,16,14.68-2.95,9.46-15.13,12.56-23.51.35-.94,2-1.41,3-2.11l40.51,14.8ZM453.9,857.27c.17,1.21,1.56,4.91,1.09,8.36-3.55,25.68,21.88,3,26.41,15.77.47,1.32,5.48,1.46,8.31,1.23.93-.08,2.72-3.5,2.26-4.65-4.49-11.32-6.46-26.11-14.84-32.81-11.65-9.31-24.62-14.89-23-32.92.22-2.54-4-5.46-6.16-8.21-2.47,2.39-6.43,4.39-7.17,7.23-3.31,12.69-6.72,25.51-8,38.49-.54,5.68,4,11.85,6.3,17.79Zm88.53,13.85c-4.24-23.86-8.2-47.24-12.79-70.49-.59-3-4.51-5.31-6.89-7.94-2.12,3.34-6.52,7.1-6,9.95,4.34,23.43,9.42,46.72,14.81,69.92.59,2.54,4.54,4.29,6.93,6.4ZM507.65,809l-7.85-.37c-.56,16.77-1.39,33.54-1.27,50.3,0,1.9,5.42,3.76,8.32,5.64,1.49-2.48,4.37-5,4.25-7.41C510.31,841.06,508.88,825,507.65,809ZM419.2,795.29c-2.6,8.76-4.78,14.06-5.49,19.56-.27,2.09,2.84,4.61,4.41,6.94,2.95-5.72,6.26-11.3,8.53-17.28C427.11,803.31,423.62,800.61,419.2,795.29Z"/><path class="cls-3" d="M1317,392.54c3.76,18.32,8.29,36.39,10.91,55.08,1.07,7.67-1.49,16.32-9.05,18.16-5.71,1.39-10.7,13-17,1.72-.28-.49-2.09.1-2.63,1-11,18-22.25,2.55-32.84-.52-14.1-4.08-27.45-14.7-41.58-17.92-9.73-2.22-16.31-4.84-22.43-18.17-6-13.14-15.13-24-28.14-13.88-4.14,3.22-10.27,1.22-15.38.23-1.14-.22-3-6.86-2.46-9.46a133.6,133.6,0,0,1,7-22.64c4-9.4,2.24-15.85-5.1-17.89-3.93-1.09-10-1.87-11.11-5.6-2.53-8.22-2.59-18.21-3.55-27.51a2.86,2.86,0,0,1,1.15-2.1c8.6-2.78,6.45-11.2,3.38-20.92,4,.55,6.79,1.45,9.57,1.21,6.37-.55,9.58-9.08,5.46-16.29-3.84-6.72-1.49-7.84,1.87-10.52,13.51-10.79,26.2-23.72,42.89-22.27,4.27.37,9-10.31,13.37-16.23.53-.73.34-4.23-.29-5a3.2,3.2,0,0,0-3.65-.73c-10.65,5.31-20.75,5.7-31.15-2.79-7.65-6.26-27.16,4.29-32.44,15.65-1.15,2.46-2,6.15-3.56,7-2.45,1.39-5.36.89-8.07,1.19.07-4-.81-8.81.35-11.79,8.69-22.27,22.11-34.71,38.32-40.89,3.33.89,6.73,2.9,10,2.34,3-.53,5.86-3.78,8.78-5.83l2.18,4.46-12.93,15.85c10.79,4.7,20.48,14.13,31.33,2.93,1.59-1.64,6.59.21,7.69,2.76,1.19,2.76.5,9-.85,12.39-6.19,15.33-13,29.47-27.25,26.17-5.68-1.32-11-.14-10.14,12.08-.9,5.52-10.53,8.68-1.66,16.92,6.35,5.89,6.4,16.24.62,23.83-3.19,4.2-6.9,7.72-9.55,12.59-1.34,2.46-.86,7.24-1.21,11,2.52-1,6.36-.79,7.34-3.23,5.59-14,14.23-18.8,24-20.25,11.38-1.69,22.81-2.67,34.22-3.95l0,10.64c-6.77.33-13.73-.71-20.25,1.44-4.3,1.42-8,7.42-11.89,11.36l-5.81,9.85c-1.45,2.71-3.15,5.2-4.23,8.2-.65,1.79-.33,4.38-.45,6.61a28.88,28.88,0,0,0,3.54-.73c12.28-4,24.47-9.05,36.87-11.7,12-2.56,24-4.13,33.6-17l12.42-12.79,5.41-.17c8.39,6.81,17.18,12.72,25.06,20.69,8.45,8.55,6.49,24,8.43,36.82-4.63-8.31-9-17.07-14-24.79-3.86-5.92-8.57-12.49-13-.38-1.39-2.94-2.81-5.84-4.14-8.84-1.62-3.66-3.16-7.39-4.74-11.09q-2.85,5.22-5.71,10.42l-6.39,9.71c-1.11,3.28-2.78,6.4-3.22,9.88-2.41,18.83-9.29,24.62-21.87,17.91,3.76-1.21,7.61-2,11.23-3.83,1.53-.77,2.58-3.77,3.85-5.76-1.26-1.79-2.36-4.7-3.82-5.21-10.06-3.49-20.19-6.54-30.32-9.52-1.07-.32-2.88.15-3.3,1.22s-.16,3.86.44,5.26a80.6,80.6,0,0,0,4.36,7.87c-6.05,1.54-12.27,2.23-18.05,5.06-2.25,1.09-3.47,7-5.16,10.74a68.44,68.44,0,0,0,8.12,1.26c7.37.3,14.78-.21,22.12.65,6.13.71,12.23,4.52,18.25,4,7-.58,14-4,20.85-6.81,6.13-2.5,9.56-2.59,7.89,10-1.12,8.41-2.88,13.33-8.64,15.62-6.67,2.67-13,7.09-19.54,10.75q-4.24-3.06-8.48-6.15c-1-3.37-1.65-9.39-2.93-9.7a155.54,155.54,0,0,0-27.78-4.23c-2.39-.12-4.89,4.34-7.33,6.69,2.84,1.52,5.62,3.66,8.55,4.41,5.23,1.34,10.56,1.84,15.84,2.68,4.71,4.67,9.24,12.7,14.16,13.3,10.76,1.3,21.83-.05,32.53-2.64,4.73-1.14,3.44-5.87-1.13-6.69,4.21-2.63,8.5-7.67,12.61-7.36,6.91.52,10-4.84,8.78-12.66-2.43-15.08,1.08-16.63,9.07-12.41C1315.65,393.59,1316.38,392.83,1317,392.54Zm-10.64,39.31c-2.39,5.43-5,9.38-4.53,10.68,1.51,4.09,3.88,8,6.55,10.22,1,.81,3.75-3.36,5.69-5.25C1311.94,443.14,1309.79,438.79,1306.37,431.85Z"/><path class="cls-2" d="M1570.5,1072.39a20.29,20.29,0,0,0-1.21,2.89.5.5,0,0,1-.19-.07c-3.24,8.29-6.47,16.66-9.7,25a.42.42,0,0,1-.34.27,333.33,333.33,0,0,1-68.12,2.59,339.58,339.58,0,0,1-100.32-22.29.44.44,0,0,1,.19-.84,622.13,622.13,0,0,0,104.54,1.37,627.11,627.11,0,0,0,70.17-8.9c-11.52-11.06-41.38-49.47-74.73-51.07-42.56-2.06-86.07-9.85-42.29-69.37,0,0,22.17-38.6,66.71,1.71C1558,992.38,1569.93,1057.41,1570.5,1072.39Z"/></svg>